# xmcd
#
# Track frame offsets: 
#        150
#        86651
#        114028
#        147291
#
# Disc length: 2398 seconds
#
# Revision: 3
# Processed by: cddbd v1.5.2PL0 Copyright (c) Steve Scherf et al.
# Submitted via: ExactAudioCopy v1.0b3
#
DISCID=29095c04
DTITLE=BLUE EFFECT and JAZZ Q PRAHA - Coniunctio
DYEAR=1970
DGENRE=Progressive Rock
TTITLE0=Coniunctio I
TTITLE1=Návštěva u tety Markéty, vypití šálku čaje
TTITLE2=Asi půjdem se psem ven
TTITLE3=Coniunctio II
EXTD=YEAR: 1970
EXTT0=
EXTT1=
EXTT2=
EXTT3=
PLAYORDER=
